PathFileType	4	(X/Y/Z)	test.trc
DataRate	CameraRate	NumFrames	NumMarkers	Units	OrigDataRate	OrigDataStartFrame	OrigNumFrames
30	30	33	17	m	30	46	93
Frame#	Time	LKnee			RKnee			LAnkle			RAnkle			LHip			RHip			LWrist			RWrist			LElbow			RElbow			LShoulder			RShoulder			LFoot			RFoot			Head			Neck			Pelvis		
		X1	Y1	Z1	X2	Y2	Z2	X3	Y3	Z3	X4	Y4	Z4	X5	Y5	Z5	X6	Y6	Z6	X7	Y7	Z7	X8	Y8	Z8	X9	Y9	Z9	X10	Y10	Z10	X11	Y11	Z11	X12	Y12	Z12	X13	Y13	Z13	X14	Y14	Z14	X15	Y15	Z15	X16	Y16	Z16	X17	Y17	Z17
46	1.5333333333333334	-0.04080725088715553	-0.013486390002071857	-0.04149814322590828	0.00020907852740492672	-0.0	-0.0	0.016885779798030853	-0.0513695552945137	-0.004664497449994087	0.10355672240257263	-0.22199347615242004	-0.017208678647875786	0.04906944930553436	-0.006059594452381134	0.03931679204106331	-0.05119336396455765	-0.0
47	1.5666666666666667	-0.04126793146133423	-0.008954230695962906	-0.041288960725069046	0.0019553066231310368	-0.0	-0.0	0.009174670092761517	-0.040406372398138046	-0.0017720815958455205	0.10484548658132553	-0.22116857767105103	0.006452932953834534	0.04824322462081909	-0.009855005890130997	0.03666887432336807	-0.04400112107396126	-0.0
48	1.6	-0.04082292690873146	-0.010191401466727257	-0.04200122132897377	0.004118609707802534	-0.0	-0.0	0.00205420283600688	-0.022423263639211655	-0.0007402239134535193	0.10660506039857864	-0.2203628271818161	0.030423855409026146	0.048217106610536575	-0.010287925601005554	0.032172754406929016	-0.04461907595396042	-0.0
49	1.6333333333333333	-0.04159374535083771	-0.009329095482826233	-0.041894543915987015	0.00519865658134222	-0.0	-0.0	-0.0026383318472653627	-0.0030586097855120897	-0.0017332598799839616	0.10729500651359558	-0.21812452375888824	0.049309033900499344	0.04824172332882881	-0.011511544696986675	0.02044692635536194	-0.04765511676669121	-0.0
50	1.6666666666666667	-0.04280805587768555	-0.009719425812363625	-0.04086913540959358	0.009618225507438183	-0.0	-0.0	-0.0026889177970588207	0.0057100034318864346	-0.0010119712678715587	0.10689354687929153	-0.18685516715049744	0.11035226285457611	0.0479220375418663	-0.013590754009783268	-0.00775200966745615	-0.047353848814964294	-0.0
51	1.7	-0.04320427402853966	-0.012906805612146854	-0.04010584577918053	0.007709433790296316	-0.0	-0.0	0.01613674871623516	0.02129185013473034	-0.002558529144152999	0.10290320962667465	-0.16268415749073029	0.13077601790428162	0.0489933043718338	-0.010653671808540821	-0.01551660057157278	-0.03549070283770561	-0.0
52	1.7333333333333334	-0.04379754886031151	-0.009524203836917877	-0.03948668763041496	0.010048126801848412	-0.0	-0.0	0.00637802854180336	0.02847583405673504	-0.0007299426943063736	0.1048998013138771	-0.1473274976015091	0.146076038479805	0.048092231154441833	-0.01404917985200882	-0.01283290982246399	-0.030331570655107498	-0.0
53	1.7666666666666666	-0.043690022081136703	-0.011780401691794395	-0.039613448083400726	0.005776954814791679	-0.0	-0.0	0.010955603793263435	0.032393310219049454	-0.001519665471278131	0.10481669753789902	-0.16743947565555573	0.12569266557693481	0.04898657649755478	-0.01033796463161707	-0.013778486289083958	-0.026362912729382515	-0.0
54	1.8	-0.04280238598585129	-0.011652234941720963	-0.040103424340486526	0.0026923399418592453	-0.0	-0.0	0.011170223355293274	0.0383291020989418	0.002424446400254965	0.1057036891579628	-0.19120022654533386	0.09389760345220566	0.04924168437719345	-0.008816295303404331	-0.006922116968780756	-0.026767903938889503	-0.0
55	1.8333333333333333	-0.04207683727145195	-0.00639618095010519	-0.040176235139369965	0.006268315017223358	-0.0	-0.0	-0.009203029796481133	0.023652328178286552	0.0027098022401332855	0.10672261565923691	-0.19798217713832855	0.08631686866283417	0.04703115299344063	-0.013643731363117695	0.00356640899553895	-0.03753368556499481	-0.0
56	1.8666666666666667	-0.04208587110042572	-0.0057052504271268845	-0.04007505252957344	0.0052575464360415936	-0.0	-0.0	-0.011709434911608696	-0.01335461437702179	0.002106468193233013	0.1072150394320488	-0.20465481281280518	0.07381542772054672	0.046995729207992554	-0.013532283715903759	0.01840943656861782	-0.04052843526005745	-0.0
57	1.9	-0.04319337010383606	-0.004574575927108526	-0.03973328694701195	0.006301421672105789	-0.0	-0.0	-0.017250504344701767	-0.01348479837179184	-2.1915129764238372e-05	0.10780584067106247	-0.2130298614501953	0.05210678279399872	0.04737010598182678	-0.015131424181163311	0.025199947878718376	-0.057467274367809296	-0.0
58	1.9333333333333333	-0.04328984022140503	-0.007484592963010073	-0.03951982781291008	0.004867668263614178	-0.0	-0.0	-0.000606655899900943	-0.003424769500270486	-0.0016309228958562016	0.10738252103328705	-0.21751010417938232	0.020034147426486015	0.04814032465219498	-0.01255367323756218	0.029142268002033234	-0.0656583160161972	-0.0
59	1.9666666666666666	-0.04161957651376724	-0.006847132463008165	-0.04104593023657799	0.0021691687870770693	-0.0	-0.0	0.0036660004407167435	-0.03110329434275627	-0.002060927916318178	0.10680978000164032	-0.21941699087619781	0.009859341196715832	0.048234548419713974	-0.01148721668869257	0.0334714874625206	-0.0774216428399086	-0.0
60	2.0	-0.038629550486803055	-0.014879023656249046	-0.04259464517235756	0.003886052407324314	-0.0	-0.0	0.010246437974274158	-0.06441953033208847	0.004538726527243853	0.10595659911632538	-0.21674728393554688	-0.0240732803940773	0.04808347299695015	-0.006939362268894911	0.045161183923482895	-0.09354905784130096	-0.0
61	2.033333333333333	-0.039569348096847534	-0.01261802390217781	-0.04209169000387192	0.007634039036929607	-0.0	-0.0	-0.005696190521121025	0.02446538582444191	0.0023009926080703735	0.10791037976741791	-0.21195055544376373	-0.03412645682692528	0.047518275678157806	-0.010418703779578209	0.04648703336715698	-0.018990306183695793	-0.0
62	2.066666666666667	-0.042098578065633774	-0.015137665905058384	-0.03975518047809601	0.013492410071194172	-0.0	-0.0	-0.006162859499454498	0.07223014533519745	0.00182872184086591	0.10760676115751266	-0.2135637104511261	-0.014787176623940468	0.04738105088472366	-0.011365469545125961	0.03992313891649246	0.0033464885782450438	-0.0
63	2.1	-0.04382510483264923	0.001982032088562846	-0.039281267672777176	-0.01031456794589758	-0.0	-0.0	0.011239762417972088	0.04392116516828537	0.03270898014307022	0.09307608753442764	-0.21178464591503143	-0.04908442869782448	0.04978575184941292	-0.00979361217468977	0.040602292865514755	-0.008809758350253105	-0.0
64	2.1333333333333333	-0.03630250692367554	-0.031855251640081406	-0.04507870599627495	0.025030553340911865	-0.0	-0.0	0.020192084833979607	-0.06910888105630875	0.0055099595338106155	0.100130096077919	0.11428523808717728	0.10105591267347336	0.04470269754528999	-0.001620398834347725	-0.008330932818353176	-0.06891633570194244	-0.0
65	2.1666666666666665	-0.0400654673576355	-0.018681686371564865	-0.03562496230006218	-0.017579521983861923	-0.0	-0.0	0.046400412917137146	0.13006791472434998	0.042646776884794235	0.059317104518413544	-0.19026745855808258	-0.04930030182003975	0.05036960914731026	0.007563190069049597	0.12050039321184158	0.04014872759580612	-0.0
66	2.2	-0.03499795123934746	-0.019408170133829117	-0.035872362554073334	-0.024761199951171875	-0.0	-0.0	0.05659141764044762	-0.055711112916469574	0.035268817096948624	0.07672449201345444	-0.21169281005859375	-0.053427327424287796	0.049214672297239304	0.012993039563298225	0.03919559344649315	-0.003108907025307417	-0.0
67	2.2333333333333334	-0.03277930989861488	-0.020967110991477966	-0.038432106375694275	-0.022175395861268044	-0.0	-0.0	0.05521327257156372	-0.02859555371105671	0.03536802530288696	0.08056007325649261	-0.21275117993354797	-0.059155963361263275	0.049077291041612625	0.012227687984704971	0.03924013301730156	-0.006801229435950518	-0.0
68	2.2666666666666666	-0.02951970137655735	-0.02104059047996998	-0.03924863412976265	-0.023914817720651627	-0.0	-0.0	0.058932580053806305	-0.039062973111867905	0.038598861545324326	0.07579231262207031	-0.21397633850574493	-0.057455483824014664	0.04786347597837448	0.013578883372247219	0.03128752112388611	0.0032541481778025627	-0.0
69	2.3	-0.032688967883586884	-0.018625661730766296	-0.038812682032585144	-0.022662710398435593	-0.0	-0.0	0.05846359208226204	-0.020312488079071045	0.03566988185048103	0.07349752634763718	-0.2144729495048523	-0.05226175859570503	0.04882776364684105	0.011086161248385906	0.023516390472650528	0.0009136024164035916	-0.0
70	2.3333333333333335	-0.0409482941031456	-0.010601942427456379	-0.032582275569438934	-0.029081782326102257	-0.0	-0.0	0.05360301956534386	0.021523039788007736	0.028131451457738876	0.07981158047914505	-0.20598170161247253	-0.05058053880929947	0.04968760907649994	0.010608901269733906	0.06235358119010925	0.011739709414541721	-0.0
71	2.3666666666666667	-0.03838673233985901	-0.015893250703811646	-0.03160511702299118	-0.029818590730428696	-0.0	-0.0	0.06159820035099983	0.009086345322430134	0.0363897904753685	0.05867629870772362	-0.2069375067949295	-0.06507468223571777	0.04871036484837532	0.014411714859306812	0.024894023314118385	0.0028787432238459587	-0.0
72	2.4	-0.03355655446648598	-0.016533004119992256	-0.037077318876981735	-0.02688293717801571	-0.0	-0.0	0.06297225505113602	-0.08272601664066315	0.025206832215189934	0.07808186113834381	-0.21180588006973267	-0.0634416937828064	0.04897376894950867	0.012546129524707794	0.007154058199375868	-0.03703440725803375	-0.0
73	2.433333333333333	-0.03442336618900299	-0.020438825711607933	-0.03914722427725792	-0.01971493475139141	-0.0	-0.0	0.05382194742560387	-0.09823067486286163	0.0306512750685215	0.08436591923236847	-0.2121208906173706	-0.0550888255238533	0.049660902470350266	0.010047945193946362	-0.0070022656582295895	-0.021503014490008354	-0.0
74	2.466666666666667	-0.03888949751853943	-0.01350740808993578	-0.03461117669939995	-0.02642316371202469	-0.0	-0.0	0.05737975612282753	-0.023823976516723633	0.016736933961510658	0.08494197577238083	-0.21157242357730865	-0.05684009939432144	0.04959999769926071	0.010319001972675323	0.035343024879693985	-0.0056846910156309605	-0.0
75	2.5	-0.04410174489021301	-0.00865174736827612	-0.03178849071264267	-0.026824969798326492	-0.0	-0.0	0.04993213713169098	-0.010744540952146053	0.008464080281555653	0.09141052514314651	-0.20829644799232483	-0.05747981742024422	0.04974092170596123	0.0076498123817145824	0.04042337089776993	0.003311506239697337	-0.0
76	2.533333333333333	-0.04014689847826958	-0.014889733865857124	-0.03483903035521507	-0.022294865921139717	-0.0	-0.0	0.04814077541232109	-0.036963772028684616	0.01589966006577015	0.09276366978883743	-0.21144510805606842	-0.05175486207008362	0.04990211874246597	0.008266784250736237	0.041934262961149216	-0.006281686015427113	-0.0
77	2.566666666666667	-0.04141756519675255	-0.013766168616712093	-0.034364987164735794	-0.022522058337926865	-0.0	-0.0	0.04967653751373291	-0.010265407152473927	0.016470711678266525	0.08997832983732224	-0.21290510892868042	-0.042969509959220886	0.05009055137634277	0.007619434967637062	0.04977128654718399	-0.002384381601586938	-0.0
78	2.6	-0.041082918643951416	-0.013560296967625618	-0.03505864366889	-0.021659640595316887	-0.0	-0.0	0.043873757123947144	-0.022557565942406654	0.018451420590281487	0.09407834708690643	-0.21264328062534332	-0.04986051097512245	0.05014853551983833	0.006937222555279732	0.041646506637334824	-0.009191744960844517	-0.0
